<svg xmlns="http://www.w3.org/2000/svg" xml:space="preserve" width="202" height="67.488" x="0px" y="0px" viewBox="0 0 201.99998 67.488425"><path fill="#f40009" d="M168.12 56.832c-.003 0-.619.549-.619.549-.879.786-1.784 1.628-2.877 1.207-.301-.11-.514-.512-.565-.824-.05-2.25.964-4.336 1.947-6.366l.252-.531c2.827-4.72 6.113-10.282 10.939-14.142.813-.587 1.696-1.08 2.627-.695.214.2.464.548.464.896 0 .11-.098.402-.154.493-1.348 2.179-2.632 4.465-3.88 6.66-2.44 4.337-4.97 8.819-8.134 12.753zm-26.149-11.124c-.185.129-3.445-.97-4.075-3.988-.534-2.6 1.255-4.63 2.987-5.654.743-.585 1.863-.786 2.684-.495.762.513.969 1.429.969 2.415 0 .605-.08 1.227-.151 1.794l-.016.128a24.363 24.363 0 0 1-2.398 5.8zm-12.454 12.277c-.333-.494-.443-1.034-.454-1.618-.064-3.588 3.796-10.012 6.52-13.512h.007c1.142 2.5 3.727 4.107 5.288 4.784-1.939 4.318-8.587 13.566-11.36 10.346zm47.054.637c-.645.439-1.552.102-1.213-.904.844-2.562 4.201-7.782 4.201-7.782l9.349-16.582h-6.404c-.304.5-.955 1.648-.955 1.648-.297-.493-1.182-1.59-1.547-1.828-1.565-.989-3.86-.521-5.444.375-6.885 4.026-11.908 11.98-15.87 18.182 0 0-4.17 6.895-6.485 7.408-1.807.146-1.62-2.288-1.542-2.855.698-4.1 2.321-7.996 3.956-11.527a88.557 88.557 0 0 0 10.57-8.636c7.484-7.154 13.793-15.26 14.715-17.07 0 0-.998.2-2.177.237-5.758 8.032-17.54 19.706-21.113 21.443 1.583-3.806 11.807-21.974 20.508-30.664l1.37-1.318c2.116-2.067 4.31-4.19 6.02-4.537.18-.018.412 0 .613.421.077 1.61-.523 2.8-1.21 4.153l-.964 1.977s1.365-.257 2.261-.55c1.04-1.957 2.192-4.153 1.767-6.769-.141-.842-.75-1.482-1.547-1.629-2.595-.494-5.424 1.427-7.7 2.983l-.092.054c-11.7 9.167-21.58 22.377-30.218 40.417-.626.475-3.045 1.043-3.456.768.853-1.756 1.927-4.117 2.465-6.678.093-.732.179-1.482.179-2.214 0-1.574-.378-3.056-1.789-4.08-1.654-.824-3.698-.439-5.076.183-6.175 2.561-10.79 8.892-14.12 14.106-1.79 3.312-3.576 6.86-4.07 10.923-.349 3.183.36 5.232 2.17 6.257 1.861.95 4.204-.038 5.124-.513 6.255-3.293 10.626-9.898 14.071-15.936.137-.018 2.018-.072 3.44-.439.02 0 .028 0 .06.02-.082.273-.817 2.469-.817 2.469-2.184 6.403-3.194 10.758-1.131 13.338 2.947 3.641 7.826-.128 11.796-5.105-.852 5.964 2.239 6.898 4.595 6.44 2.707-.73 5.723-3.622 7.123-5.104-.45 1.738-.327 4.849 2.135 5.16 1.688.312 2.95-.606 4.412-1.393 5.242-2.855 11.518-12.366 13.147-15.116h-2.136c-2.316 3.5-5.263 8.09-8.97 10.268zM95.81 23.104h6l3.386-5.5h-6.001zm95.841-14.611c-4.575 2.598-9.317 4.281-15.058 3.696-1.591 1.793-3.14 3.641-4.568 5.544 8.057 2.049 16.6-2.507 21.363-6.842 5.04-4.373 7.624-9.88 7.624-9.88s-3.777 4.317-9.361 7.482zm-50.45-1.39c-.954 10.941-9.459 17.364-11.563 17.875-1.275.256-3.451-.311-1.509-4.903 2.861-6.185 7.745-11.435 12.985-14.125.128.458.124.75.087 1.153zm-16.572 27.572c-.61-1.317-2.056-2.159-3.597-2.067-5.006.457-9.902 4.574-12.473 10.483-1.35 3.038-2.085 5.544-2.568 9.533 1.556-1.793 4.731-4.738 8.334-6.349 0 0 .49-3.823 2.99-7.226.947-1.41 2.84-3.678 4.966-3.075 1.857.623 1.204 5.764-1.264 10.74-1.827 3.66-4.622 7.32-7.45 9.844-2.5 2.122-6.2 4.683-9.436 2.708-2.038-1.207-3.078-3.733-2.858-6.99.974-9.239 5.18-17.107 11.198-26.072 6.206-8.324 13.047-16.869 22.263-21.426 1.88-.95 3.62-1.17 5.125-.585 0 0-8.651 4.757-12.775 13.558-1.05 2.233-2.508 5.25-1.04 7.922.769 1.39 2.132 1.5 3.23 1.427 5.054-1.171 8.32-5.891 10.988-10.209 1.547-3.275 2.922-6.532 2.922-10.155 0-.439-.022-1.024-.06-1.464 2.415-1.28 7.367.988 7.367.988 3.87 1.281 12.11 7.594 14.89 8.801 1.355-1.573 3.583-3.951 4.838-5.14l-1.816-1.117c-2.908-1.775-5.981-3.458-9.006-5.123-6.87-3.75-12.462-2.433-15.308-1.409-1.119.403-2.141.75-2.141.75-2.112-2.305-5.576-2.086-8.128-1.463-9.178 2.634-17.7 9.056-26.836 20.199C100.267 30.485 96.1 38.024 93.88 45.47c-1.712 5.012-2.232 12.386 1.946 16.759 3.552 3.713 8.263 2.908 11.589 1.573 7.207-3.55 13.684-11.198 16.912-19.998.779-2.616 1.643-6.312.302-9.13zm-79.885-8.489a888.64 888.64 0 0 1-1.224 2.817c-.175.147-.452.074-.77 0l-.544-.092c-1.708-.53-2.997-1.664-3.394-3.018-.548-2.635 1.703-4.702 2.695-5.452.951-.66 2.43-1.007 3.29-.33.53.623.73 1.427.73 2.306 0 1.19-.367 2.525-.783 3.77zm-2.603 5.287s-.055.165-.083.22c-.007 0-2.755 4.481-2.755 4.481-1.658 2.215-3.729 4.996-6.317 6.331-.768.257-1.828.422-2.369-.255-1.145-1.372-.555-3.275-.075-4.812l.17-.549c1.375-3.732 3.558-7.026 5.682-10.082a.279.279 0 0 1 .107-.036c.005.018.014.018.017.055 1.333 2.561 3.833 3.75 5.702 4.3.012 0 .024.018.024.055 0 .054-.03.128-.103.292zm34.376-2.945c1.229-1.701 4.807-6.257 5.679-7.026 2.933-2.58 4.106-1.445 4.207-.64a578.724 578.724 0 0 1-9.007 15.57c.006-.019-.95 1.445-.95 1.445-1.342 2.048-2.693 3.805-4.897 5.03-.314.093-.832.13-1.177-.128-.415-.274-.579-.732-.532-1.208.132-1.573 1.734-6.384 6.676-13.044zM46.052 17.404c-3.793-2.488-11.415 2.269-17.52 10.428-5.583 7.319-7.994 15.826-5.37 19.76 3.902 4.629 11.147-2.104 14.228-5.708l.398-.421c2.095-2.25 3.714-4.959 5.28-7.557 0 0 1.44-2.379 1.51-2.489a33.99 33.99 0 0 0 3.17-.768c-.018.055-4.622 7.794-4.153 11.636.147 1.172.035 5.454 4.215 6.752 5.57.934 10.02-3.384 13.944-7.227 0 0 .669-.64 1.047-1.005-.096.384-.22.895-.22.895-1.632 5.672.567 6.862 1.942 7.301 4.156 1.208 9.122-4.83 9.138-4.83-.129 1.902-.506 3.476 1.5 4.738 1.892.678 3.807-.355 5.263-1.325 5.244-3.696 9.468-9.48 12.88-14.48h-2.177c-.025 0-5.37 7.747-8.841 9.43-.005 0-.637.325-1.001.069-.45-.385-.273-1.184.005-1.75.017-.037 13.401-23.249 13.401-23.249h-6.319s-.69 1.117-.747 1.19c-.042-.036-.143-.228-.214-.32-3.915-5.416-12.78 2.914-19.456 12.574-2.57 3.714-5.841 7.896-9.234 10.916 0 0-5.025 4.607-7.173 1.297-.785-1.391-.543-3.424-.1-4.76 2.5-7.117 6.808-13.576 11.71-17.474 1.385-1.078 2.889-1.39 3.635-.933.712.422.826 1.464.376 2.177-1.141-.036-2.056.31-2.8 1.08-1.465 1.536-1.974 3.019-1.508 4.41 2.263 3.22 6.775-3.148 6.557-7.027-.078-1.39-.82-2.707-1.927-3.348-1.65-.988-4.168-.732-5.797.055-2.181.823-5.634 3.695-7.649 5.928-2.537 2.8-6.888 5.91-8.249 5.561.446-1.19 4.121-8.709.255-11.526zm31.762 40.709c-7.442-4.794-17.542-5.635-33.83-1.116-17.364 4.08-23.154 6.696-30.757 1.445-2.921-2.58-3.969-6.733-3.187-12.715 1.814-9.753 6.716-19.138 15.422-29.548 4.86-5.416 9.368-10.063 15.32-11.93 4.562-1.17 4.136 2.415 3.584 2.928-.583 0-1.561.092-2.317.585-.614.476-2.299 2.013-2.39 4.08-.13 3.166 3.146 2.507 4.558.77 1.523-1.959 3.774-5.71 2.003-9.204-.742-1.244-2.024-2.104-3.615-2.397-5.45-.311-10.527 2.287-15.212 5.16C17.15 13.288 8.953 23.15 4.317 33.945 1.643 40.458-.775 49.788 2.849 57.382c2.804 5.269 8.625 8.067 15.57 7.482 4.871-.512 10.76-2.086 14.722-3.036 3.962-.952 24.238-7.923 30.901 4.209 0 0 2.216-4.301 7.753-4.393 4.552-.42 11.119 1.318 15.9 4.83-1.593-2.396-6.11-5.927-9.878-8.36z" style="fill:#e61d2b;fill-opacity:1"/></svg>