<svg xmlns="http://www.w3.org/2000/svg" xml:space="preserve" id="layer" x="0px" y="0px" version="1.1" viewBox="0 0 652 422.7"><style>.st0{fill:#8a2432}</style><path d="M453.6 297.5c1.9-.7 3.6.6 3.8 2.9.1 2.3-1.4 4.7-3.3 5.5-1.9.7-3.6-.6-3.8-3-.2-2.2 1.3-4.6 3.3-5.4M412.1 284.4l.3 7.1c-1.1-.5-2.9-.3-4.6.2l-6.1 2c0 .9.3 8.1.5 9 2-.8 2.9-1 4.3-1.6.9-.3 2.7-1.5 3.1-2.3l.4 8.4c-.7-.3-1.7-.8-3.4-.3-1.4.3-2.2.7-4.2 1.4l.5 9.1 7.1-2.5c2.1-1 3.6-2.5 4.1-3.1l.3 7.5-19.9 7.2c.5-1.2 1.1-3.2.9-6.5 0 0-.7-16.5-1.3-24.4-.2-1.9-.7-3.6-1.4-4.5zM417.5 310.9c1.2 1.1 4.9 1.5 6.9.8 1.5-.6 2.4-1.9 2.4-2.9-.1-1.7-1.1-2.6-4.3-3.3-3.5-.7-5.6-2.1-5.7-5.6-.3-5.2 3.9-8.8 9-10.1 1.7-.4 4.1-.4 5.3-.4l.3 5.6c-1.1-.6-3.6-.8-5.2-.3-1.7.6-2.5 1.8-2.3 3 .3 1.2 2 1.7 5.6 2.6 2.8.8 4 2.5 4.1 5.1.3 5.4-3.4 9-8.7 10.9-1.9.7-6 1.2-6.9 1.1zM443 279.7c0 1.5-.1 1.3.1 4.4l1.4-.6c1.8-.8 3-1.7 3-1.7l.2 5.5-4.4 1.5.7 12c.2 2.6 1.8 3.3 3.6 2.9l.2 3.6c-1.4 1-3 2-4.5 2.5-1.9.7-3.4.4-4.7-.8-.9-.9-1.4-2.9-1.5-5.3l-.7-12.4-3 1 4.2-10.3zM472.8 298.7l-10.4 3.6s1.4-2.9 1.3-6.1l-.9-17.4c-.2-3.6-2.4-4.4-3.1-5 .3-.1 9.4-8.1 9.4-8.1l1.4 28.2c.2 3.7 2.3 4.8 2.3 4.8M501.7 269.5c-1.5-1.4-2.4-2.7-2.5-4.9-.3-4.3 2.9-9.9 9.5-12.3 5.2-1.9 9.4-.3 9.6 4.8.2 3-2.2 6-4.1 8.1 0 0 1.4.3 2.1.8 2.3 1.4 3.6 3.1 3.8 6.1.2 4.3-2.9 11.3-10.3 14-5.7 2.1-10.7.1-11-5.3-.2-3.8 2.8-8.3 5-10.1-.1 0-1.1-.4-2.1-1.2m3.5 9.8c.2 2.6 2.2 3.5 4.2 2.7 2.1-.8 3.7-3 3.6-5.1-.1-2.5-1.8-3.4-4.8-4.5-2.2 2.6-3.1 5.1-3 6.9m6.8-20.8c-.1-2.2-1.7-3-3.2-2.4-1.9.7-3 2.4-2.9 4.3s2 3.1 3.9 3.6c1.7-2.2 2.3-4.1 2.2-5.5M477.2 278.3c-1.5-1.4-2.4-2.7-2.5-4.9-.3-4.3 2.9-9.9 9.5-12.3 5.2-1.9 9.3-.3 9.6 4.8.2 3-2.2 6-4.1 8.1 0 0 1.4.3 2.1.8 2.3 1.4 3.6 3.1 3.8 6.1.3 4.3-2.9 11.3-10.2 14-5.7 2-10.7.1-11-5.3-.2-3.8 2.8-8.3 5-10.1-.1-.1-1.1-.4-2.2-1.2m3.6 9.7c.2 2.5 2.2 3.5 4.2 2.7 2.1-.8 3.7-3 3.6-5.1-.2-2.5-1.8-3.4-4.8-4.5-2.2 2.6-3.1 5.1-3 6.9m6.8-20.7c-.1-2.2-1.7-3-3.2-2.4-1.9.7-3 2.4-2.9 4.3s2 3.1 3.9 3.6c1.7-2.2 2.2-4.2 2.2-5.5M523.8 272.1c1.8 1.4 4.4 2.1 7.2 1.2 3-1 4.9-4.1 4.7-7.8-.2-3.4-2.1-4.5-4.6-3.6-2.1.8-3.4 2.9-3.9 3.7l-3.1-.9-.4-17.2 12.7-4.6c1.8-.7 3.1-1.4 3.9-2l.2 7.3-11.4 4.1.2 6.5c1.1-1.1 3-2.4 5-3.1 6.2-2.2 9.1 1.9 9.4 6.5.3 7-5 13.5-11.3 15.8-3.3 1.2-6 .9-8 .6zM78.5 162.5l9.4 179.3c.8 14.9-.7 28.1-7.7 43.2 4.9-1.8 52.9-18.8 64.4-23.1-8.5-7.7-10.1-18.8-10.5-27.4l-4.2-80.8c14.7-1.8 37.5-11.5 51.2-20.9 39.1-26.8 49.5-56.8 46.8-88.9-3.2-38-31.3-70.1-75.4-67.7-13.4.8-28.2 4.5-44.4 11.3C53.1 110.9 1.9 169 0 242.4c-1.1 43.1 17.5 87.7 46.5 110.3 8.7 6.8 15.8 9.6 18.3 10.3-40.2-33.4-45.7-85.5-42.4-114.7 7.7-72 60.3-115.8 95.8-126.9 33.1-10.3 63.2.3 65.2 37.1 1.9 35.9-18.8 59-38.8 68.4-5.6 2.6-11.4 4.4-15.7 5l-5.2-99.9c-16.2 5.7-39.1 22.6-45.2 30.5M431.6 201.4c.6 30.9 21.5 52.3 50.7 43.9 19.4-5.5 38-25.1 44.9-40 .5 9.6-2.4 17.3-5 22.4 3.3-1.2 33.8-12.3 38.6-14-4.6-5.7-5.7-14.4-6.1-22.9-.2-2.9-.9-16-1.6-30.6.1-15.1 5-23.7 9.4-26.5 5-3.2 12.2-2 13.8 4.4 1 4-.3 9.3-4.7 12.4 14.5 3.9 29.3-6.3 27.9-25-1.3-16.9-15.9-23.8-27.7-20.1-9 2.8-17.2 11-20.2 22.6-.3-8.2-.7-13.7-.7-13.7L515.7 127c3.3 2.5 6.2 7.6 6.7 15.9l1.9 37.4c-4.6 18-21.3 38.1-35.4 41.3-13.6 3-22.7-2.5-27.1-12.9 9.5 1 16.9.1 24.4-3 14.7-5.8 27.2-22.7 25.3-43-1.9-20-19.1-29.4-38.8-23.2-27.7 9.1-41.6 34.6-41.1 61.9m40.6-43.9c9.4-1.9 12.1 7.2 12.2 13.1.1 8.3-3.2 17.2-12.3 22.1-4.2 2.3-9 2.7-13 2.5-2.8-23.7 5.7-36.3 13.1-37.7" class="st0"/><path d="M303.8 305.8c20-13.2 29.8-40.3 28.4-66.7-1.7-31.3-21.6-39.2-35.7-34.5-8.9 3-17.2 7.1-22.8 17.7l-.4-8.6-35.9 13.1c3.3 2.5 6.2 7.6 6.6 15.9.2 3 1.1 21.2 2 41.4-4.9 17.3-22.3 34.4-36 37.5-13.6 3-22.7-2.5-27.1-12.9 9.5 1 16.9 0 24.4-3 14.7-5.8 27.2-22.7 25.3-43-1.9-20-19.1-29.4-38.8-23.2-28 8.9-42 34.3-41.4 61.7.6 31 21.5 52.2 50.7 43.9 19.2-5.4 38.4-21.7 44.1-35 1.9 36.3 2.1 41.2 2.1 41.8.3 5.7-.7 20.5-4.3 27.8l41-15c-4.5-6.8-5.7-15-6.2-22.9l-1.4-26.8c8.7-1.6 18.4-4.6 25.4-9.2M193 257.4c9.4-1.9 12.1 7.2 12.2 13.1.1 8.3-3.2 17.2-12.3 22.1-4.2 2.3-9 2.7-13 2.5-2.7-23.7 5.8-36.3 13.1-37.7m94-25.2c9.4-1.5 14.6 6.3 15.2 17.8.8 14.8-2.7 30.4-11.7 39.7-3.2 3.4-8.5 6.1-12.9 7.3l-3-56.7c4-4 7.5-7.3 12.4-8.1M398.2 271.6c19.9-13.2 30.1-38.3 28.5-65.4-1.9-33-20.5-40.4-35.7-35.4-11 3.6-16.6 11.2-22.1 19.6l-.6-10.9-35.9 13.1c3.3 2.5 6 7.6 6.4 15.9l5.7 109.7c.5 9.9-1.2 21.3-4.1 27.5 0 0 36-13.1 40.8-14.8-4.5-6.8-5.7-15-6.2-22.9l-1.4-27.1c8.6-1.7 17.7-4.8 24.6-9.3M382.7 198c9.4-1.5 13.9 7.6 14.5 19.1.8 14.8-2.1 29.1-11.8 38.7-3.3 3.3-8.3 5.6-12.7 6.8l-3-56.6c3.6-3.6 8.1-7.1 13-8M374.4 80.6l3 55.8c.4 8.1.8 18.1-3.3 29.1 3.3-1.2 33.8-12.3 38.6-14-4.6-5.7-5.7-14.4-6.2-22.9-.2-2.9-.8-16-1.4-30.6-.8-16.4 4.5-22.9 9.4-26.5 4.7-3.6 12.2-2 13.8 4.4 1 4-.3 9.3-4.7 12.4 14.5 3.9 29.4-6.3 28-25-1.3-16.9-15.9-23.8-27.7-20.1-9.1 2.8-17.3 11-20.2 22.6-.4-8.2-.7-13.7-.7-13.7L367.9 65c3.1 2.3 6 7.3 6.5 15.6M235.6 81.9c.6 9.4 4.9 94.5 5.2 98.4.5 8.4 2 20.1-5.5 34.5 6.8-2.4 54.4-19 66.7-24.1 34.5-14 61.5-47.7 59-98.6-2.6-53.4-39.1-69.8-79.5-56.4-10.8 3.6-48.8 17.8-57.2 20.5 6.1 4.1 10.5 11.2 11.3 25.7m62.3-24.3c17.2 4.1 23.6 24.9 24.4 45.2.8 23.2-6.8 51.1-24.8 64.3-5.4 4-13 7.4-18.5 9.1-.3-4.1-5.5-103.5-6-112.4 6.4-3.9 16.2-8.3 24.9-6.2" class="st0"/><path d="M643 104.1c-16.1-40.8-46.3-73-96.3-92.7C533.5 6.1 513.7.8 501.4 0c56.1 18.3 98.4 51.5 116.3 97C659 201.8 555 332.4 385.4 388.5c-85.2 28.2-170.8 32.4-240.1 16.1 7.3 5.2 24.8 9.2 38 11.8 67 12.9 147.3 5.7 227.5-20.8C580.2 339.5 684.2 208.8 643 104.1" class="st0"/></svg>