<svg xmlns="http://www.w3.org/2000/svg" width="1401.1256103515625px" height="591.45166015625px" style="shape-rendering:geometricPrecision;text-rendering:geometricPrecision;image-rendering:optimizeQuality;fill-rule:evenodd;clip-rule:evenodd" viewBox="0 0 1401.1256103515625 591.45166015625"><path fill="none" d="M0 0h1401.126v591.452H0z" style="fill:#211eb3;fill-opacity:0;pointer-events:none"/><path d="M123.4 77.8v1.6h3.7l-.1 5.8h-15.3v-2.1l-.1-11.1H127v5.8h-3.6ZM193 82.3v2.9l-6.8-.1-.1-13.1h13.5l.4.1.5.4.5.3.5.5.3.5.3.5v5.6l-.7.6 4.4 3.7-.4 1.1-8.8-.1-3.6-2.9ZM228.5 77.9V82.1l-.2.6-.2.6-.4.5-.4.5-.3.3-.4.2-.4.2-.4.1-.2.1H214l-.6-.2-.5-.2-.5-.3-.1-.1-.1-.1-.5-.6-.2-.3-.1-.4-.1-.3.1-8.1.2-.4.4-.6.5-.6.5-.5.7-.3.4-.2h11.6l.5.3.7.4.5.6.5.6.3.7v.1l.2.7.1.8v1.7ZM237.5 72h4.3l2.5 2.5L247 72h7.7l.3.6-7.5 7.3v5.4l-6.8-.1v-5.3l-7.6-7.2.3-.7h4.1ZM174 77.8v1.6h3.6v5.8h-15.4V72h15.4v5.8H174Z" class="st0" style="fill-rule:evenodd;clip-rule:evenodd;fill:#1d1d1b" transform="matrix(5.08885 0 0 5.08885 4.62 2.411)"/><path d="m113.8 83.1-.1-9.1h11.2v1.7h-8.4l-.1 1.9h4.9v1.7h-4.9v2.2h8.5v1.6h-11.1ZM188.2 74h10.9l.3.2.2.2.2.2.2.2V79l-.6.5-.7.2-.8.2-.8-.1 4.2 3.4-4-.1-4-3.3H191v3.3h-2.7l-.1-9.1Z" class="st1" style="fill-rule:evenodd;clip-rule:evenodd;fill:#fff" transform="matrix(5.08885 0 0 5.08885 4.62 2.411)"/><path d="M191 75.7h6l.5.6v.2l.1.3v.5l-.3.4-.2.4-6.1.1v-2.5Z" class="st2" style="fill-rule:evenodd;clip-rule:evenodd" transform="matrix(5.08885 0 0 5.08885 4.62 2.411)"/><path d="M214.6 74h10.6l.3.3.3.3.3.4.1.4.1.4.1.4-2.8.6v-1.1h-7.9l.1 5.8h7.9v-1.9l-4.3-.1v-1.6h7v3.9l-.1.3-.1.2-.1.3-.2.2-.3.2-.4.2h-10.9l-.4-.2-.2-.1-.2-.3-.1-.3.1-7.2.2-.3.5-.6.4-.2ZM237.5 74h3.4l3.4 3.4 3.6-3.4h2.7l-5.1 5-.1 4.2h-2.7V79l-5.2-5ZM164.3 83.1V74h11.2v1.7H167v1.9h4.9v1.7H167v2.2h8.5v1.6h-11.2Z" class="st1" style="fill-rule:evenodd;clip-rule:evenodd;fill:#fff" transform="matrix(5.08885 0 0 5.08885 4.62 2.411)"/><path d="m195.4 47.9-.5.2-.5.1 2.4 1.8.2.3.3.3.2.6.1.6.1.6-.1.6-.1.3-1 2.3-1.1 2.1-1.1 2.2-1.2 2-.1.1-1.1 1.6-1.2 1.5-.1.1-1.1.9-1.1.9-1.1.7-1.2.7-.4.2-1.2.2-1.3.1-1.2-.2-1.3-.2-.4-.2-.4-.3-.3-.3-.3-.5v-.3l-2-1.7-1.9-1.7-.4-.3-.2-.4-.2-.5v-.6l.1-.5.3-.6.3-.5.4-.5.5-.3.6-.3.6-.1h.6l.6.1.2.1.3.1 1.8 1.3 1.9 1.3h.4l.3-.1 1-.9.7-1.1.7-1.5.6-1.5.5-1.6.5-1.6-2-.1-2 .1v.1l-.3.3-.2.2-.4.2-.3.1-.5.1-.5.1h-.5l-.4-.1-.4-.1-.3-.2-.3-.2-.3-.3-2.1-2.9-2-3-.2-.4-.1-.5v-.4l.1-.4.2-.7.4-.6.3-.3.3-.3.9-.4.8-.6.4-.2.3-.1.9-.1h1.8l2.6-.6 2.7-.6 1.2-.4.6-.2.5-.1h.6l.6.1h.3l.4.2 2.1 1.1 2.2 1 .4.2.3.3.2.3.2.4.1.2.4-.7.5-.6.5-.6.6-.4.5-.3.5-.3.4-.1.5-.1h.5l.5.1.5.2 15.9-.1h.1l.7-.2.7-.1h.4l.4.1.4.2.4.3.4.2.3.4.6 1.1.4 1.1.3 1.1.1 1.2v.4l-.2.4-.2.5-.3.3-.2.2-.3.2-.4.2-.4.1-.3.1H219.1l-.4-.2-.4-.2-.3-.3-.5-.8-.3-.3-.4-.3-.5-.2-3.8.1-.1 7.6.1 7.6-.1.4v.4l-.3.4-.2.3-.4.3-.5.3-.5.1-.4.1h-.5l-.5-.1-.5-.2-.4-.3-1.7-1.2-1.7-1.4-.4-.3-.3-.5-.1-.6-.1-.7.1-.6.2-.6.2-.3.2-.4.2-.3.1-2.5.1-2.5v-2.5l-.1-2.6H202l-.5.4-.9 1-.5.5-.3.3-.3.3-.5.1-.4.1h-.7l-.6-.1-.5-.3-.6-.3-.3-.3-.2-.3-.2-.4-.1-.4Z" class="st2" style="fill-rule:evenodd;clip-rule:evenodd" transform="matrix(5.08885 0 0 5.08885 4.62 2.411)"/><path d="m200.8 44 16.9-.1.5-.2.4-.1h.4l.2.1.3.1.4.8.3.9.2.9.1.8-.2.2-.2.1-.3.1-.2-.1-.3-.4-.2-.4-.4-.3-.4-.4-.4-.2-.4-.3-.4-.1-.5-.1h-6.1l-.1 8.7v8.6l-.2.2h-.5l-.2-.2-1.8-1.1-1.6-1.3-.1-.3v-.2l.1-.6.8-.8.1-3.2.1-3.3-.1-3.3-.2-3.2-5.5-.1-.8.6-.7.7-.7.7-.6.7h-.6l-.4-.3v-.5l.1-.5.1-.5.3-.5.2-.4.3-.5.4-.3.4-.4.7-.3h.4l.2.1.2.2ZM184 46.2h-2.5v.8l1.7 2.6h7.9l.8-.4h.5l.6.5 2.4 1.9.1.3.1.2v.2l-.1.3-.9 2.1-1 2.1-1.1 2.1-1.2 2-1.1 1.4-1.1 1.4-.9.9-.9.7-1.1.6-1 .6-1 .2-1 .1-1-.1-.9-.2-.2-.7-2.2-1.9-2.2-2v-.2l.1-.1.1-.2.2-.2.3-.2.5-.1 2 1.4 2 1.4.7.2h.7l.7-.1.7-.3.7-.6.5-.7.6-.7.5-.8.5-1 .5-1.1.8-2.2.3-1.1.3-1.1.5-2.3-.3-.2-.4-.3h-6.5l-.5.5-.5.5-.5.1-.4-.1-2-2.8-2-2.9.1-.3.2-.3.9-.6.9-.6.5-.1.6.1H181.3l2.9-.6 2.8-.8 1.3-.4.6-.2.6.1 1.1.6 1.2.6 2.3 1.1.2.4.1.5-2.6.1h-5.2l-2.6-.1Z" class="st1" style="fill-rule:evenodd;clip-rule:evenodd;fill:#fff" transform="matrix(5.08885 0 0 5.08885 4.62 2.411)"/><path d="m118.2 62.1.2.2.2.3.2.3.1.4.1.4v.7l-.1.4-.1.3-.1.4-.1.3-.2.3-.2.2-.3.2-.3.2-.8.4-.7.4-.7.5-.6.6-.3.2-.4.2-.7.2h-.6l-.8-.1-.6-.4-.4-.3-.3-.4-.2-.5V50.9l-2 2.6-1.8 2.6.3.4.2.5.1.5v.5l-.2.5-.2.5-.3.5-.4.4-.4.2-.4.2h-.8l-.2.1-.4.3-.6.3-.4.2h-.3l-.4.1-.7-.2-.3-.2-.3-.2-.3-.3-4.8-6.6v8.7l-.1.5-.2.4-.2.3-.2.3-.3.3-.3.1-.3.2-.3.1-.4.1h-.8l-.7-.3-.6-.4-.4-.4-.3-.5-.1-.4-.3-.4-.2-.3-.4-.3-.2-.2-.2-.3-.2-.6-.2-.6v-.6l.1-.6.3-.7.3-.7.1-.2.1-.3.1-2.4v-7.4l-.7-1.3-.2-.4-.1-.4v-.5l.2-.4.1-.4.3-.3.4-.3.4-.2.6-.2 1.2-.7.5-.5.4-.2.3-.2h.4l.4-.1.3.1.5.1.3.2.3.2 1.2 1.3 1.1 1.4 1.1 1.4 1 1.4 3.2 4.3 1.6-2.2 1.6-2.1 1.8-2.1 2-2v-.3l.1-.4.2-.3.2-.3.2-.3.3-.2.4-.2.4-.1h.3l1.1.1 1 .2.5.2 1 .8.7.5.6.4.8.3.4.2.3.3.4.3.1.4.2.4.1.5v.9l-.2.5-.3.5-.4.4-.5.2.1 14ZM131.8 42.2V41l-.3-.4-.2-.5-.1-.4-.1-.4v-.5l.1-.4.1-.3.1-.3.2-.3.3-.3.2-.2.3-.2.4-.1h.3l.7-.1.7-.1.4-.3.5-.1h1l.3.2.4.1.2.3.3.2.1.3.2.3.1.4v4.8l1-.1h.5l.7.1.7-.1.6-.1 1.3-.1h.7l.7.2.3.2.7.6.5.3.5.3.6.4.3.1.3.2.2.2.2.3.2.6.2.6v1.1l-.2.7-.4.6-.1.1v.5l-.3.9-.1 1v1.3L147 54v.1l-.2.6-.1.6-.1.4v1.2l-.2.5-.2.5-.2.4-.3.4-.3.4-.4.3-.4.3-3.7 2.2h-.2l-1.6.8-1.5.9v1.5l.3.6.1.2.1.5v1.1l-.1.5-.2.5-.3.4-.4.4-.4.4-.5.2-.9.2-.9.1-1-.1-.9-.3-.6-.3-.4-.4-.4-.5-.2-.6-.1-.7.1-.6.2-.6.4-.5v-1.4l-1.1-.6-1.1-.6-1-.6-1-.8-.8-.6-.7-.7-.6-.8-.7-.7-.6-.8-.5-.9-.5-.9-.4-.9-.4-.9-.3-.9-.3-1-.2-1-.2-1-.1-.9v-2l-.2-.3-.2-.5-.1-.5v-.5l.2-.5.4-.7.5-.5.4-.3.4-.1.5-.3.6-.3.5-.3.5-.4.3-.2.2-.1.6-.2h1.2l.6.1.5.2h3.9Z" class="st2" style="fill-rule:evenodd;clip-rule:evenodd" transform="matrix(5.08885 0 0 5.08885 4.62 2.411)"/><path d="m133.7 44.4.3-4.2-.7-.6-.1-.4.1-.5 1-.1 1.2-.3.2-.1h.2v3.3l.1 3.3h1.6l1.6-.1h1l2.1-.2h1l.6.5.7.5.6.4.7.3.2.3v.8l-.2.3-.2.4-.1.3-.1.4-.3 1.2-.2 1.3v1.3l-.1 1.4-.1.4-.1.4-.1.8v.8l-.1.4-.3.5-.3.4-.3.3-3.8 2.2-2.2 1.1-2.1 1.2v3.3l.5.9.1.4-.1.4-.2.3-.2.2-.6.2h-.6l-.6-.1-.5-.1-.2-.1-.1-.2-.1-.1v-.3l.1-.1.1-.2.2-.1h.2l.1-2.1v-2l-1.3-.5-1.3-.6-1.2-.7-1.2-.9-1.4-1.2-.5-.7-.6-.8-.6-.7-.5-.8-.4-.8-.4-.9-.3-.8-.3-.9-.2-.9-.2-.9-.2-1.9v-.9l.1-.9-.5-.7.2-.3.2-.3.8-.3.7-.4.8-.4.6-.5h.8l.4.1.4.2 6.2.1Z" class="st1" style="fill-rule:evenodd;clip-rule:evenodd;fill:#fff" transform="matrix(5.08885 0 0 5.08885 4.62 2.411)"/><path d="m244.9 60.4-.3.9-.4.8-.5.7-1 1.3-.8.1h-1.4l-1.2-.2-1.9.1-3.9-.1-1.9-.2-.2.8h-3l-.5-.4-.9-.6-1.8-1-.9-.4-.7-.3-.3-.6-.2-.7v-.7l.1-.7.3-.6.4-.5.1-10.1-1.2.2v-3.1l.1-1.7h2.3l.6-.2.5-.2.4-.4.5-.4.5-.4.5-.5.6-.1.9-.1.9.1 1.6.3v.9l6-.1.6-.2H240.1l.5.5.6.5.5.6.5.6.4.7.3.7.3.7.2.8.1.8.1 1-.8.6-.5.4-.5.3-.6.2-.6.1-1-.1-.5.7-.2.7-.1.7-.1.7v2.4l-1.7.1h-.7l-.6-.1-1.2-.2-.3-1.2-2.6-.1.1 4.7 1.9.2 1.9.1h1.9l1.9-.2.5-.2.4-.4.3-.5.2-.5.2-1.6h4.1l.3 1.8.5-.2.1-9.1-1.3-.4-.1-1.6v-.7l.2-.7.3-.8.8-.3 1.1-.5 1.1-.5 1.1-.6 1.1-.6.9-.2h.9l1.5.2v.7l.9-.2 5.3-.1 1.2-.2h1.5l.7.3.4.3.4.4.5.5.5.5.4.6.3.6.1.4v.6l-.2.8-.1.4-.2.4-.2.4-.3.2-.2.3-.1.3v.2l.1.6-.3.5-.2.3-.2.3-.2.2-.3.2-.3.2-.3.1-.6.2-.6.3.7 1.4.8 1.4.9 1.3 1 1.2 1 1.2 1.1 1.1 1.2 1.1 1.3 1 .3.2.4.2 3.4 1.4-.2 1.6-3.7.5-.6.2-.6.3-.5.4-.5.5-.4.5-.6.2-.7.1-.7-.1-.7-.2-.6-.3-.8-.8-.8-.9-1.1-1.3-.9-1.4-.9-1.5-.7-1.6-.8-1.4-.9-1.4-.9-1.4-1-1.4-.2-.2-.2-.2-.5-.3h-.4l-.4.1-.4.2-.3.2-.1 10.7-1.8.1h-1l-1-.1-.5-.9-.4-.6-.5-.5-.6-.4-.7-.4-.4-.3-.4-.4-.3-.6zm-6.5-11.7-.7-.8-.5-.6-2.8-.1h-2.8v2.3h3.3l.3-.7 1.1-.1h2.1zm15.8-.5 1-.4 1.1-.3 1.1-.2 1.1-.2.5-.5h-.7l-.7.1-.6.6h-1.4l-.6-.2-.5.3-.4.3-.4.4-.4.4.9-.3zM171.7 58.4l.5.6.3.6.5 1.1-.8.9-1 1-.8 1.2-.4.5-.7.1-.5.2h-.6l-2 .2v-5.4L155.7 51v12.6l-.8.6-.5.2-.4.1-.5.1h-.5l-.6-.3-.7-.5-.7-.7-.5-.7-.5-.8-.1-.4-.2-.5-.1-.9v-.5l.2-.8.2-.5-.1-11.4-1-.9.6-1.3.4-.8.4-.7.9-.2.4-.1.5-.2.4-.3.4-.3 1.2-1.1 12 9.9V39.9l-1.7-1.5L166 37l.7-.4.7-.4 1.1-.4.8.8 1.3 1 1.3 1 1.2.9-.6 1.4-.3.5-.3.5-.2 16.5Z" class="st2" style="fill-rule:evenodd;clip-rule:evenodd" transform="matrix(5.08885 0 0 5.08885 4.62 2.411)"/><path d="m53.3 15.9-.5.6-.5.5-.3.5-.2.4-.3 1.2.3.6.2.6.1.6-.1.5-.1.6-.3.5.4.3.3.4.2.5.2.5.1.4.1.5v.5l-.1.5-.2 1-.3 1-.1.5.1.5.4 1.4.4 1.4.3 1.4.2 1.4v.6l-.2.7-.3.5-.4.6-.7.7-.1 1-.1.9-.2 1-.2.9-.1.7-.1.8v1.4l.5 1.4.9 2.4.8 2.5.1.6V53.1l-.1.6-.2.5-.3.6-.3.4-1 1.4-1 1.4-.2 1.2-.2 1.2-.7 1.5-.8 1.6-.4.7-.2.8-.2.7-.1.8v.4l.1.4.2.9.1.9v.9l-.1.9-.1.6v.7l.1.6.1.7.3 1.3.2 1.3v1.4l-.1 1.4-.3.6-.3.5-.3.5.1 1.5v1.4l-.1 1.5-.3 1.4v1.1l.1.5.1.5.1.5.2.5.3.5.3.5.2.4.2.4.2.4.1.5.1.9v.5l-.1.5-.2.6-.2.6-.2 1.1-.1 1.1-.2 1.2-.1.6-.3.6.2.6.1.4v.9l-.1.4-.3.6-.4.6v3l-.2.8-.2.7-.2.7-.4.7-.4.6-1.5 2.5-.5.7-.7.5-1.5 1-1.1-1.4-.4-.7-.2-.7-.1-.8.1-.7.2-.8.2-.7.3-.7.1-.8.2-1.3.3-1.3v-.7l-.2-.7v-.8l-.2-.7-.3-.8-.2-.7-.4-.7-.4-.7-.4-.6-.5-.6-.2-.4-.2-.3-.1-.7v-.8l.1-.3v-.4l.5-.9.5-.7-.3-1.3-.3-1.2-.1-1.3-.1-1.2.2-1.9.2-1.8.1-.8-.1-.7-.2-.8-.2-.7-.4-.8-.2-.8-.1-.9V77l.1-.9.2-1.1v-1.2l-.1-.5-.3-.4-.7-1.1-.6-1.1-.1-.4-.1-.4-.1-.5v-.5l.1-.4.1-.5.1-.4.3-.4.6-1.2.6-1.2.5-1.3.5-1.3.2-.7.2-.8.1-.8.1-.8.1-1.1.2-1 .4-1 .4-1 .1-.3.1-.3v-.6l-.2-.7-.1-.7-.3-.7-.3-.7-.3-.9-.3-.9-.2-.9-.2-.9-.1-.9v-1l.1-.9.1-.9.2-.9.1-.8.1-.9.1-.9v-.7l-.2-.6-.2-.7-.4-.6-.4-.4-.2-.5-.2-.5-.1-.6.1-.8.2-.8.4-1.8-.2-.5-.2-.6-.2-.6v-.6l-.1-.9.1-.9.1-.9.1-.9.2-1v-1l-.6-.6-.7-.6-.5-.8-.3-.5-.2-.6-.1-.6.1-.6.1-.5.2-.4.3-.4.3-.3.2-.3.1-.4-.2-1-.2-1.1-.2-.7v-.8l-.3-.4-.3-.3-1-.6-.4.1-.5.1h-1l-.5-.2-.4-.2-.4-.2-.4-.3-.5-.1-.5-.1.1.5.1.5.1 1.1-.9.6.1.6.1.7v.8l-.1.4-.1.5-.2.5-.3.3-.7.6-.7.4-.8.5-.7.5-.1 1v1.9l.1 1 .5.3.4.3.7.7-.1.9-.2 1.1-.3.9-.4 1-.5.9-.5.7-.3.8-.1.3v.9l.1.4.3 1.4.2 1.6v.7l-.1.8v.2l.1.6.1.2.6 1.2.5 1.2.2.8.2.8.1.4.1.3 1.2 1.6.2.4.3.4.1.4.2.4V48.2l-.2.6-.2.5-.9 1.7-.8 1.7-.1.5v.5l.1.5.1.5.3.5.1.5v.6l-.1.5-.2.8-.4.7.4.4.3.5.3.5.2.6.2.5.1.6v.6l-.1.5-.4 1.6-.5 1.5-1.3 4.8-.5 1.7-.2 1v1l.2 1.1.2 1 .3.8.1.7.2.9V81l-.2.8-.1.8-.3 1.6-.1 1.7-.1 1.6.1 1.7.1 1.3-.1 1.3-.1 1.3-.1 1.3v.6l.1.5.2.6.1.7.1.7v.7l.4.8.6.7.1.5.2.7.1.6-.8 1.6.9 4.7-.8.4-4.2-3.3-.7-2.1v-2l-.2-.6-.5-.6-.3-.7-.4-.8-.4-1.6-.4-1.8-.3-1.7-.2-1.8-.1-1.4-.2-1.4-.3-1.3-.4-1.3-.6-1.5-.6-1.4-.1-.5-.1-.4v-1.4l.1-.4.2-.4.1-.5-.4-.7-.4-.7-.1-.6-.1-.6v-.6l.1-.6.3-.8-.9-.8-.3-.2-.3-.3-.2-.4-.2-.3-.1-.7v-.6l.1-.5.1-.6.1-.5.2-.5.2-.5.3-.6.7-.9.3-.4.2-.5.3-.4.1-.5.2-1v-1.1l-.3-1.6-.2-2.6v-.3l-.1-.3-.1-.2-.2-.2-.3-.4-.3-.5-.1-.5-.1-.5v-.7l.2-.7.4-1.3-.1-.7-.1-1.4v-.7l.1-.7-.1-.7-.9-3-.9-3.1-.2-.7-.3-.7-1.2-2-.4-.5-.3-.7-.2-.7-.1-.7v-.8l.1-.8 1.3-5.9.4-1.2.5-1.2-.3-1.9.1-.7.1-.6.2-.6v-.3l-.1-.2-.2-.9-.3-.8-.8-.6-.4-.2-.3-.3-.6-.7-.2-.5-.1-.7v-.6l.1-.6.3-.7-.3-.6-.2-.3-.3-.3-1.3-.3-2.9-.5-1.4-.4-1.4-.5-.9.2H1.7l-.5-.1-.4-.3-.4-.5-.2-.3-.1-.3L0 12v-1l.3-.5.2-.5.8-.9.6-.3.5-.3.7-.1h1.2l1-.3 1-.5.9-.4.9-.4 1-.2 1-.1 3.2-.2h.5l.4-.2.5-.2.4-.3.5-.5.8-.1.9-.7.9-.6.7-.1.7.1.3.1.3.2.3.1.3.3.3.4.4.3.4.3.5.1 5.1.2.4.3.4.3.3.4.3.4.5-.6.5-.5.7-.4.7-.3.2-.7.5-.4.5-.4.6-.2.6-.1h.6l.6.1.5.3.7-.5.8-.4.9-.4.8-.3 3.2-.5 1.1-.4.9-.8.7-.4.5-.1.4-.1h.5l.4.1.4.2.4.2 1.5 1.1 1.6 1 1.6.9 1.7.8.5.2.4.5.4.4.2.6.1.5.1.5.8.1.4.1.4.2.4.3.4.3.2.3.2.3.1.4.1.3 1.5-.5 1.5-.6.6-.3.5-.4.3-.5.3-.6.2-.5.5-.4.5-.3.6-.4.6-.2.6-.2.7-.6.7-.5.5-.2h.7l.7.1.7.2.4.6.3.3.3.2 1.1.3 1 .2.7.2.5.2.5.4.4.5.9 1.3 1.7.5-.3 1.6-.1.6.4.3.4.4.3.5.2.5.2.6.1.5-.1 1-.2.9.6.6.2.4.1.3.1.4V17.6l-.2.5-1.3 2V21.3l-.3.8-.2.3-.2.4-.2.3-1 1.1-.6 2.2-.6 2.2-.2.6-.3.6-.2.6-.4.5-.1.4-.2.3-.1.4-.1.4.2 1.2v1.2l-.1 1.2-.1 1.2.5.5.4.4.2.4.2.5.1.5-.1 1.1-.5 2.4-.3 1.1-.4 1.6v.6l.1.3.2.3 1.5 2.3.4.8.3.9.3.9.2 1v1.9l-.1.9-.2 1-.1 1-.3 1-.3.7-.4.7-.3.7-.5.7-.6.9v.4l.1.5 1 2.6.3.9.1.9-.1.8-.2.9-.5 1.1-.7 1.1-.3.5-.2.4.8 2 .3.7.1.7v.8l-.1.7-.1.4-.2.5-.3.9-.2 1.1-.1 1.1.1 1 .7 2.4.2.4-.1.5-.2.8-.3.7-.4.7-.4.6-.5 1.5-.8 1.1-.6 1.3-.7 1.3-.5 1.3.1.3.1.4 1 1.3-1.3 1.3-.3.7-.4.4-.5.4-2.3 3-.9-.3-.1-3.8-.1-1-.1-1.1-.2-1.1-.2-1.1-.1-.5-.1-.5v-.6l.1-.5.1-.5v-.6l.4-2.7v-.7l-.2-.6-.5-1L64 85l-.1-.4-.1-.5-.1-.4v-.5l.1-.4.1-.4.1-.4.2-.4.7-1.3.6-1.3.1-.3V78l-.1-.4-.2-.5-.2-.5-.2-.5v-1.4l.1-.9.3-.9.3-.8.4-.7.3-.8.1-.7V68.6l-.1-.7v-1l-.1-1 .1-1 .1-1 .2-1.3.2-1.4v-1.4l-.1-1.4-.2-.9-.2-.9-.4-1-.3-.9-.3-.6-.2-.6-.1-.7-.1-1.3v-.6l.1-.7.2-.6.6-2.1.1-.3-.1-.2-.7-1.4-.7-1.3-.6-1-.4-1.1-.3-1.1L63 40v-.8l.1-.9.1-.8.2-.8.1-.5v-1.4l-.5-.6-.4-.6-.1-.3-.1-.3-.1-.3v-.3l.1-.4.1-.3v-.2l.2-.3.7-.9 1.1-1.2-.1-.4-.2-.4-.1-.5v-1l.2-.6.1-.6.2-.5-.2-.8v-.4l-.1-.4V23l.1-.4.1-.8.1-.8v-2l-.1-.3-.4-.6-.3-.3-.4-.1-.4-.2h-3.1l-1-.1-.9-.2-.9-.4-.8-.6h-2.1l-.9-.3Z" class="st0" style="fill-rule:evenodd;clip-rule:evenodd;fill:#1d1d1b" transform="matrix(5.08885 0 0 5.08885 4.62 2.411)"/><path d="M253.7 51.4h-.5l-.5.1-.4.2-.5.2-.4.3-.4.3-.3.3-.3.4v9.5h-.9l-.5-.9-.7-.7-.8-.6-.9-.5-.2-.3-.1-.3V59l.1-.3.3-.2.2-.3.2-.3.1-.3v-9.2l.1-1.2-.1-1.2-1.4-.1v-.3l.1-.4 1.1-.5 1.1-.5 1.1-.6 1-.7h1v.9l-.9.4v.9l.1.9.8-.8.8-.2.9-.6.5-.2.5-.2.5-.1 3.2-.1h3.2l1.2-.2.2.2.2.3.4.3.4.3.3.4.2.4v.5l-.1.3-.1.2-.3.3-.5.6-.2.4-.1.4v.8l.1.4-.1.2-.1.1-.1.1h-.2l-.8.1-.8.3-.8.4-.6.5h-.8v-.2l-.1-.2-.1-.1-.1-.1H256.6l-.1.2V51.3l.5.1h.4l.7.2.7.3.6.4.5.5.8 1.5.9 1.4.9 1.4 1 1.3 1.1 1.3 1.2 1.2 1.3 1.1 1.3 1.1.5.4.6.3-.5.1-.5.2-.9.4-.4.3-.4.3-.4.4-.3.4-.3.1-.5-.1-.2-.2-.7-.6-.6-.7-1-1.2-.9-1.3-.8-1.4-.7-1.4-.9-1.5-.9-1.5-.9-1.4-1-1.4-.3-.4-.4-.4-.5-.3-.5-.2-.3-.2-.3-.1h-.4l-.3-.3zm1.1-1.4 1.9-.5 1-.2 1-.2.3-.1.4-.2.3-.2.3-.3.5-.6.2-.3.2-.3.1-.4.1-.4v-.8l-.1-.4-.2-.3-.9-.2H258l-.9.1-.5.3-.4.3-.4-.1-.4-.2-1.1.4-1 .5-.9.7-.5.4-.4.4-.1.5v.5l-.2.6-.1.7V51l1.8-.7 1.9-.3zM226.1 46.3l-.6-.2h-.6v-.8h.9l1-.3.6-.3.6-.5.4-.2.4-.3.3-.2.3-.4h1v.7l.2.3.2.3 8-.2.4-.2h.4l.5.4.3.5.4.5.3.6.3.5.2.6.2.6v.6l-.2.2-.3.1-.3.1h-.3l-.3-.3-.3-.4-.4-.7-.6-.6-.6-.7-.7-.6-3.3-.1h-3.4l-.5.2-.4.3-.3.4-.2.5-.1 4.7 6-.1.3-.1.2-.2.3-.5h1.1l-.2.9-.2.8-.2.9v.9h-.4l-.4-.1-.4-1.5-2.7-.1h-2.6l-.5.4-.1.3-.1.3-.1 6.1.4.4.4.4.5.3.4.2 2.1.2 2.1.1h2l2.1-.2.6-.2.4-.3.5-.3.4-.4.3-.5.3-.5.2-.5.1-.5h.8l.1.6v.6l-.1.6-.1.7-.3.6-.2.5-.3.5-.5.6-.5-.1-.6-.1-2.6.1-2.5-.1h-2.5l-2.6-.3-.1.2-.2.2-.1.3v.2h-.9l-1-.6-1-.6-2-1V59.7l.3-.3.3-.3.1-.4.2-.4v-12ZM169.8 59.3l.3.2.3.2.2.3.2.3-1 1.2-.9 1.1-.8.2v-4.2l-14.2-11.5-.3 15.6-.6-.4-.5-.4-.4-.5-.3-.6-.2-.5-.1-.5.1-.7.2-.6V45.7l-.6-.5.3-.7.8-.2.6-.3.7-.3.6-.5L168 54.5V39.3l-.3-.5-.4-.3.4-.3.4-.3 1.3 1.2 1.4 1-.3.5-.3.2-.3.2-.1 18.3Z" class="st1" style="fill-rule:evenodd;clip-rule:evenodd;fill:#fff" transform="matrix(5.08885 0 0 5.08885 4.62 2.411)"/><path d="M43.2 104.9v-1l-.1-1-.1-.8-.2-.9-.2-.9-.4-.8-.4-.8-.4-.8-.6-.7-.5-.7-.1-.3-.1-.2v-.3l.1-.3.3-.6.4-.6.3-.4.2-.5v-.5l-.4-1.1-.3-1.2-.1-1.2-.1-1.1.2-1.8.2-1.7.1-.6v-.5l-.1-.5v-.6l-.1-.5-.2-.5-.2-.5-.4-1-.2-.5v-2.3l.1-.7.1-.8.1-1.4v-.7L40 73l-.2-.4-.2-.4-.3-.5-.6-.8-.4-.9-.2-.5v-.4l.1-.5.9-1.7.6-1.3.6-1.4.4-1.4.3-.9.2-.9.2-.9.1-.9.1-.9.1-.8.3-.8.3-.8.3-.6.1-.6.1-.6v-.6l-.2-.9-.2-.8-.3-.8-.4-.8-.3-.7-.2-.8-.2-.7-.1-.8-.1-.8v-1.5l.1-.8.3-1 .1-.9.2-1.9v-.5l-.1-.5-.1-.6-.1-.5-.2-.4-.2-.6-.6-.8-.2-.2-.1-.2-.1-.2V35l.1-.5.5-1.7.1-.4V32l-.1-.4-.1-.4-.3-.7-.2-.8v-1.5l.1-.8.2-.7.2-1.3V24l-.1-.2-.2-.5-.5-.5-.5-.5-.5-.5-.4-.5-.1-.2-.1-.3v-.4l.2-.4.2-.3.4-.5.2-.5.2-.5v-.6l-.1-1.2-.3-1.2-.1-.7v-.7l-.1-.3-.1-.3-.6-.7-.6-.5-1.8-1.4-.8.4-.3.1h-.8l-.3-.1-.2-.2-.2-.2-.2-.2-.9-.3-.2.1H31l-.2-.2-.2-.2-.2-.2v-.5l-.3-.6.4-.5.5-.4.5-.3.6-.2.4-.3.2-.3.3-.4.1-.4.2-.2.3-.1h.5l.5.3.6.2h.5l.6-.2.6-.5.6-.4.8-.4.7-.2 3.3-.6 1.6-.6 1-.8.4-.2.5-.1 1.6 1.2 1.7 1 1.8 1 1.8.9.3.2.2.3.1.5v.4l.1.8.1.3.2.2.4.1.4.1 1.2.1.3.2.3.3-.1.3-.1.4-.7.3-.8.1-.9.6-.8.8-.2.3-.1.2-.1.4-.1.3v.4l-.1.5-.2.4-.3.3-.9 1-.2.3-.3.4-.2.3-.2.5-.2.5-.3.5-.1.3.1.4.2.5.2.6.2.3.1.4v.3l-.1.3-.5.9-.1.3-.1.2v.4l.1.2.2.1.5.4.4.4.2.4.2.5-.1.6-.2.9-.2.9-.1.5-.1.5.1.6.1.5.4 1.3.3 1.2.3 1.4.2 1.3v.4l-.1.3-.2.2-.7.6-.5.5-.1.2v1.2l-.1 1-.2.9-.2.9-.2 1-.1.9v.9l.1 1 .3.8.3.9.8 2.3.8 2.4v.4l.1.4v.4l-.1.3v.4l-.3.7-.2.3-.9 1.2-1 1.2-.2.3-.2.4-.1.3v.4l-.2.9-.1.9-.6 1.4-.7 1.4-.5.9-.3 1-.3.9-.1 1 .1.7.1.7.1.7.1.7v.7l-.1.7V72.3l.1.8.1.8.3 1.1.1 1.2.1 1.1-.1 1.1-.6.9-.5 1 .3 1.4v1.4l-.1 1.4-.3 1.4-.1.8v.7l.1.7.2.7.2.7.2.7.3.6.4.6.3.5.2.5v.6l-.1.6-.1.5-.2.5-.1.6-.2.8-.1.6v.7l-.1 1-.1.5-.3.5-.1.3v.3l.3 1v.6l-.1.2-.1.2-.3.1-.3 1v3l-.1.6-.2.6-.2.6-.3.5-.3.5-1.3 2.4-.4.4-.5.4-.1-.3-.2-.4v-.9l.1-.5.2-.3.2-.6.2-.5.2-1.1.2-1.3.2-1.2ZM24.5 94.2v.9l.2 1 .1.4.1.5.1.5v.5l.3 1.3.3.4.1.4.5.5.2.6-.5 1-.3.7.1.9.1.6-.8-.6-.4-1.3v-.8l.1-.9-.2-.7-.4-.9-.4-.6-.5-1-.5-1.6-.4-1.7-.2-1.6-.2-1.6-.1-1.5-.3-1.6-.3-1.5-.5-1.5-.6-1.3-.5-1.4-.2-.6v-.6l.2-.6.3-.6.1-.3v-.4l-.1-.4-.3-.5-.3-.6-.3-.5-.1-.3-.1-.3v-.3l.1-.2.3-1.2.1-.4-.1-.5-.2-.4-.4-.3-.9-.8-.3-.3-.1-.4.1-.9.2-.9.4-.8.5-.7.5-.6.3-.6.3-.7.3-.7.1-.6.1-.8v-.7l-.1-.7-.2-1.5-.2-2.5-.1-.6-.2-.6-.3-.6-.4-.4-.1-.3-.2-.4.1-.3.1-.4.4-1.3.1-.2v-1l-.2-.5V50l-.1-1-.9-3.1-.9-3.1-.3-.9-.3-.9-.7-1.1-.7-1-.2-.4-.2-.4-.2-.5-.1-.4.1-1.2 1.3-5.7.4-1 .4-1 .2-.6V27l-.3-1.3v-.8l.1-.3.2-.4v-.4l.1-.5-.2-.9-.3-.8-.2-.8-.1-.2-.1-.3-.4-.4-1.1-.7-.3-.2-.3-.3v-.2l-.1-.2v-.2l.1-.3.3-.9.1-.4-.1-.5-.3-.8-.3-.5-.4-.5-.5-.4-.5-.2-1.6-.4L9 13l-1.3-.3-1.4-.4-1.3-.4-.3-.1H3.8l-.7.1-.6.1H2l-.1-.2-.1-.3.3-.5.4-.4.3-.2.2-.1.3-.1h1.4L6 9.8l.6-.3.6-.3.7-.3.7-.3.8-.2.8-.1 3.2-.1.8-.1.8-.2.7-.4.6-.5h.4l.4-.1.4-.3.4-.4.5-.4.5-.3h.2l.3.1.5.6.7.5.7.5.8.2 4.6.1.3.2.2.2.3.6.4 1.2.3.9.1.1v.2l-.1.1-.1.1-.1.3v.2l.7.9.1.3.1.3-.4.2-.2.3-.1.4-.1.3v.7l.1.6v1.3l-.2.3-.4.3-.5.3-.8.5-.8.5-.4.3-.2.3-.3.8-.1 1.2v2.4l.1 1.2.2.7.9.3.4.3-.1.8-.2.8-.4.7-.4.8-.5.9-.5.9-.1.7-.1.7v.6l.2.7.2 1.4.2 1.3v1l-.1.6.1.6.1.6.2.5.6 1.1.4 1.1.2.5.1.6.1.4.1.4.2.4.3.4 1.1 1.6.2.4.2.6.1.2v.3l-.1.3-.1.2-.5.8-.5.9-.4.9-.4 1-.2.4-.1.5v.9l.1 1 .2.4.2.4.1.4v.4l-.1.5-.3.5-.4.8-.1.3.1.4.1.2.2.3.4.2.3.3.2.3.2.4.1.4.1.4v.4l-.1.4-.3 1.4-.5 1.4-1.2 4.7-.7 1.9-.1.6-.1.7v1.3l.1.7.1.7.2.6.2.6.2.7.1.6.1.7.1.7v.7l-.1.6-.3 1.4-.2 1.7-.2 1.9v1.7l.1 1.8v2.5l-.1 1.2-.2 1.2Z" class="st3" style="fill-rule:evenodd;clip-rule:evenodd;fill:#aec90b" transform="matrix(5.08885 0 0 5.08885 4.62 2.411)"/><path d="m64.7 7 .7-.4.8-.3.6-.2.7-.5 1-.6.3.4.5.4.5.3.6.2 1.1.3 1.2.2.3.1.2.1.2.2.2.2.6.9.3.5.3.2.2.2.3.1.3.1-.1.4-.2.4-.2.5v.3l.1.3.4.3.5.2.3.2.3.2.1.2.1.3.1.2v.2l-.1.8-.2.8v.5l-.1.4.2.3.3.3.3.3.3.4-1.1 1.9-.2.4-.1.4-.1.5v.8l-.1.4-.1.3-.2.2-1 1.1-.2.4-.2.4-.6 2.2-.6 2.2-.3.9-.8 1.3-.2.5-.2.5-.2.6v.4l.1.4.1 1.1v1.1l-.1 1.1-.1 1.1v.9l.2.3.3.3.6.5.2.2.1.2-.3 2-.2 1.1-.3.9-.3.9-.2.9v.7l.1.7.2.6.3.6 1.5 2.2.3.7.3.8.2.7.1.8.1.8v.8l-.2.8-.1.7-.1.9-.3.9-.2.6-.4.6-.3.6-.7 1.1-.4.5-.1.6-.1.7.1.6.1.6 1.1 2.6.1.5.1.6v.5l-.1.5-.5.9-.5.9-.5.7-.3.7-.1.4v.3l.1.3.1.3.8 2.1.1.4.1.5v.5l-.1.6-.3.6-.1.7-.2.7-.2.7V82l.1.7.8 2.5-.2.7-.3.6-.3.5-.4.6-.4 1.4-.8 1.2-.8 1.4-.6 1.4-.6 1.4v1.2l.2.5.3.6-.4.5-.3.6-.4.3-.4.5v-1.2l-.2-1.2-.1-1.1-.3-1.2-.1-.3v-1.1l.1-.7v-.7l.4-2 .1-.4v-.9l-.1-.5-.1-.5-.2-.5-.5-1-.4-1-.1-.4v-1l.2-.4.7-1.4.7-1.3.1-.4.1-.4.1-.3v-.4l-.1-.8-.5-1.4-.1-.7V74.1l.2-.5.3-.6.4-1 .4-.9.1-.9.1-.9v-.8l-.1-.8-.1-.9v-1.7l.1-.8.3-1.5.1-1.6.1-1.5-.2-1.5-.2-1.1-.2-1.1-.4-1-.4-1.1-.2-.4-.2-.5-.1-.4v-2l.2-.5.7-2.1v-1.4l-.2-.4-.7-1.4-.9-1.5-.4-.8-.3-.8-.3-.9-.1-.9.1-.6v-.7l.1-.7.2-.7.2-.7.1-.7v-.7l-.1-.7v-.2l-.2-.3-.6-.6-.2-.3-.2-.2v-.3l.1-.3.5-.6 1.5-1.6.2-.4.2-.4V29l-.1-.3-.1-.2-.3-.4-.2-.4V27l.1-.5.1-.4.2-.4.1-.4v-.4l-.3-1.1V23l.1-.9.1-.9.1-1v-.9l-.1-.7-.2-.7-.3-.6-.5-.6-.6-.4-.7-.4-.7-.2h-.8l-2.7-.1h-.7l-.6-.2-.6-.3-.6-.4-.2-.1-.2-.1-.7-.2h-1.9l-.2-.1-.2-.1.1-.6.2-.4.2-.3.4-.3.3-.3.3-.2.4-.2.5-.2.4-.1 1.4-.2 1.3-.4 1.2-.5 1.3-.5.5-.2.4-.3.8-.6.3-.4.3-.5.2-.4.2-.5Z" class="st3" style="fill-rule:evenodd;clip-rule:evenodd;fill:#aec90b" transform="matrix(5.08885 0 0 5.08885 4.62 2.411)"/><path d="M137.6 72h2.8l5.8 3.9-.1-3.9h6.6v13.2h-4.8l-5.7-3.9v3.9h-6.6V72h2Z" class="st0" style="fill-rule:evenodd;clip-rule:evenodd;fill:#1d1d1b" transform="matrix(5.08885 0 0 5.08885 4.62 2.411)"/><path d="m116.2 62.7.6.9.1.3v.3l-.1.3-.1.3-.9.5-.8.5-.9.6-.7.7h-.7l-.2-.1V45.3l-2.3 2.6-2.1 2.7-2.1 2.8-2 2.9.3.4.2.3.4.3.3.3-.1.4-.2.3h-1l-.5.3-.4.3-.6.3-8.6-11.7v15l-.2.1-.3.1-.3-.1-.2-.1-.3-.7-.4-.6-.4-.5-.5-.5-.1-.4V59.5l.2-.5.2-.5.2-.3.1-.3.1-.4.1-.3.1-2.7V49.2l-.1-2.6-.9-1.7.8-.3.7-.4.8-.5.7-.5 1.1 1.2 1.1 1.3 1 1.3 1 1.4 5 6.8.9-1.5 1-1.4 1-1.5 1.1-1.4 1.1-1.3 1.2-1.3 2.4-2.5.2-.6.1-.6h.8l.8.2.7.7.8.6.9.5 1 .4.1.3v.4l-1.4.4.2 16.1Z" class="st1" style="fill-rule:evenodd;clip-rule:evenodd;fill:#fff" transform="matrix(5.08885 0 0 5.08885 4.62 2.411)"/><path d="M135.6 45.5h1.5l1.5.1 1.4.4 1.4.5.3.9.1 1 .1.5.1.4v.5l-.1.5-.1 1.9v1.9l-.1.6-.1.6-.2.6-.2.5-.3.5-.4.5-.5.4-.4.4-1.3.9-.6.3-.7.4-.8.2-.8.1v-7.3l.2-7.3ZM133.3 45.3l-.1 14.3-1.1-.9-1-1-.9-1.1-.8-1.1-.8-1.2-.6-1.2-.5-1.4-.3-1.3-.3-.8-.1-.9v-.8l.1-.9.2-.4.4-.3.3-.2.5-.1.3.2.4.2.4.1h.4l.7-.5.6-.7h2.2Z" class="st0" style="fill-rule:evenodd;clip-rule:evenodd;fill:#1d1d1b" transform="matrix(5.08885 0 0 5.08885 4.62 2.411)"/><path d="M137.6 74h2.2l8.5 5.8-.1-5.8h2.5v9.1h-2.2l-8.4-5.8v5.8h-2.5V74Z" class="st1" style="fill-rule:evenodd;clip-rule:evenodd;fill:#fff" transform="matrix(5.08885 0 0 5.08885 4.62 2.411)"/></svg>