<svg xmlns="http://www.w3.org/2000/svg" id="Layer_2" width="797" height="797" version="1.1" viewBox="0 0 797 797"><defs id="defs4"><style>.cls-2{stroke-width:0}</style></defs><g id="Layer_1-2" transform="scale(.40028 .4123)"><path id="path6" d="M995.5 35.68c529.5 0 958.75 416.74 958.75 930.82S1525 1897.31 995.5 1897.31 36.75 1480.59 36.75 966.51 466 35.68 995.5 35.68" style="stroke-width:0;fill:#fff"/><path id="path8" d="M995.5 35.69c529.5 0 958.75 416.74 958.75 930.82S1525 1897.32 995.5 1897.32 36.75 1480.58 36.75 966.51 466 35.69 995.5 35.69m0-35.69C861.12 0 730.75 25.57 608 75.96c-118.55 48.68-225.01 118.37-316.43 207.13C200.16 371.84 128.39 475.2 78.25 590.3 26.32 709.46 0 836.04 0 966.51s26.32 257.03 78.25 376.22c50.14 115.08 121.91 218.44 213.32 307.19 91.42 88.75 197.88 158.44 316.43 207.13 122.76 50.41 253.12 75.96 387.5 75.96s264.75-25.55 387.5-75.96c118.55-48.68 225.01-118.37 316.43-207.13 91.41-88.75 163.18-192.11 213.32-307.19 51.93-119.19 78.25-245.76 78.25-376.22s-26.32-257.05-78.25-376.22c-50.14-115.1-121.92-218.45-213.32-307.21-91.42-88.75-197.88-158.44-316.43-207.13C1260.25 25.57 1129.88 0 995.5 0" class="cls-2"/><path id="path10" d="M176.96 621.7c110.61 36.39 240.81 61.12 359.55 61.12 300.73 0 613.34-107.99 923.08-107.99 135.34 0 258.48 14.78 354.02 46.87-141.63-315.42-462.63-520.97-817.34-520.97S320.89 308.61 176.96 621.7" style="stroke-width:0;fill:#f9150c"/><path id="path12" d="M1814.1 1312.36c-110.61-36.39-240.81-61.12-359.55-61.12-300.73 0-613.34 107.99-923.08 107.99-135.34 0-258.48-14.78-354.02-46.87 141.62 315.42 462.62 520.97 817.33 520.97s675.38-207.88 819.31-520.97z" style="fill:#1d0f82;stroke-width:0"/><path id="path14" d="M557.2 786.72h319.91v88.72H683.96v45.88h151.86v85.33H683.96v45.89h195.37v88.71H557.21V786.72Zm1133.21 354.53h129.14V781.01l-128.21 44.1-.93 316.15zm-411.96-77.85c24.06 60.75 95.88 89.71 202.91 89.71s173.09-42.49 173.09-117.56c0-130.12-227.2-97.9-227.2-145.34 0-13.76 16.42-24.22 45.48-24.22 40.29 0 62.39 12.54 70.58 37.83l102.66-37.71c-12.88-49.55-64.31-87.39-176.97-87.39-94.93 0-165.02 39.79-165.02 112.74 0 135.74 227.19 100.77 227.19 150.86 0 15.14-16.12 24.21-50.57 24.21-51.75 0-86.36-12.5-100.36-40.33l-101.78 37.22zm-889.99-22.75-91.07 33.06v67.54H170.58V786.78h197.51c102.63 0 153.79 42.78 153.79 118.73s-56.41 107.71-133.42 135.15zm-39.68-165.26H297.4v106.35l47.99-18.85c30.71-11.18 48-24.36 48-51.84 0-22.6-16.39-35.66-44.61-35.66m708.24 265.85h-126.8V786.77h197.51c102.63 0 153.79 42.78 153.79 118.73s-56.43 107.71-133.42 135.15l-91.08 33.06v67.54zm51.4-265.85h-51.4v106.35l48-18.85c30.71-11.18 48.01-24.36 48.01-51.84 0-22.6-16.4-35.66-44.61-35.66" class="cls-2"/></g></svg>